<svg width="640" height="176" viewBox="0 0 640 176" fill="none" xmlns="http://www.w3.org/2000/svg">
<path d="M0 12C0 5.37258 5.37258 0 12 0H628C634.627 0 640 5.37258 640 12V164C640 170.627 634.627 176 628 176H12C5.37259 176 0 170.627 0 164V12Z" fill="url(#paint0_linear_1_298)"/>
<path d="M201.683 82.6664L192.376 77.2934C192.262 77.2272 192.132 77.1924 192 77.1924C191.868 77.1924 191.738 77.2272 191.623 77.2934L182.317 82.6664C182.202 82.7324 182.107 82.8274 182.041 82.9417C181.975 83.0561 181.94 83.1859 181.94 83.318V94.064C181.94 94.3327 182.084 94.5813 182.317 94.7164L191.623 100.089C191.856 100.224 192.143 100.224 192.376 100.089L201.683 94.7164C201.916 94.582 202.059 94.3334 202.059 94.064V83.318C202.059 83.0486 201.916 82.8007 201.683 82.6657V82.6664Z" fill="#8080F2"/>
<path d="M167.802 87.5607L178.922 68.2156C179.326 67.5158 180.073 67 180.88 67H203.12C203.928 67 204.674 67.5158 205.078 68.2156L216.197 87.5184C216.396 87.8658 216.5 88.2589 216.5 88.659C216.5 89.0591 216.396 89.4522 216.197 89.7997L205.078 108.987C204.674 109.686 203.928 110.043 203.12 110.043H180.88C180.073 110.043 179.326 109.697 178.922 108.997L167.803 89.7789C167.605 89.4428 167.5 89.0597 167.5 88.6694C167.5 88.2791 167.605 87.896 167.803 87.5599L167.802 87.5607ZM177.01 96.8625C177.01 97.1475 177.181 97.4102 177.428 97.5527L191.592 105.724C191.838 105.867 192.147 105.867 192.394 105.724L206.568 97.5527C206.815 97.4102 206.987 97.1475 206.987 96.8625V80.5186C206.987 80.2344 206.817 79.9709 206.571 79.8284L192.406 71.6583C192.284 71.5884 192.146 71.5516 192.006 71.5516C191.865 71.5516 191.727 71.5884 191.605 71.6583L177.429 79.8292C177.183 79.9717 177.009 80.2351 177.009 80.5193V96.8632L177.01 96.8625Z" fill="#4B32C3"/>
<path d="M242.097 102V74.2909H261.418V79.7299H248.794V85.4124H260.43V90.865H248.794V96.561H261.418V102H242.097ZM283.755 87.5637L277.681 87.726C277.617 87.2931 277.446 86.9097 277.166 86.576C276.887 86.2332 276.522 85.9672 276.071 85.7777C275.629 85.5793 275.114 85.4801 274.528 85.4801C273.761 85.4801 273.107 85.6334 272.566 85.9401C272.034 86.2468 271.773 86.6617 271.782 87.1848C271.773 87.5907 271.935 87.9425 272.269 88.2402C272.611 88.5378 273.22 88.7768 274.095 88.9572L278.1 89.7149C280.175 90.1118 281.717 90.7702 282.727 91.6903C283.746 92.6103 284.261 93.828 284.27 95.3433C284.261 96.7685 283.837 98.0087 282.998 99.064C282.168 100.119 281.031 100.94 279.588 101.526C278.145 102.104 276.494 102.392 274.636 102.392C271.669 102.392 269.328 101.784 267.614 100.566C265.91 99.3391 264.935 97.6975 264.692 95.641L271.227 95.4786C271.371 96.2363 271.745 96.8136 272.35 97.2104C272.954 97.6073 273.725 97.8058 274.663 97.8058C275.511 97.8058 276.201 97.6479 276.733 97.3322C277.266 97.0165 277.536 96.5971 277.545 96.0739C277.536 95.6049 277.329 95.2306 276.923 94.951C276.517 94.6623 275.881 94.4368 275.015 94.2745L271.389 93.5844C269.306 93.2056 267.754 92.5066 266.735 91.4873C265.716 90.4591 265.211 89.1512 265.22 87.5637C265.211 86.1746 265.58 84.9885 266.329 84.0053C267.078 83.0131 268.142 82.2555 269.522 81.7323C270.902 81.2092 272.53 80.9476 274.406 80.9476C277.221 80.9476 279.439 81.5384 281.063 82.72C282.687 83.8926 283.584 85.5071 283.755 87.5637ZM294.143 74.2909V102H287.527V74.2909H294.143ZM298.354 102V81.2182H304.97V102H298.354ZM301.669 78.7963C300.74 78.7963 299.942 78.4897 299.274 77.8763C298.607 77.2539 298.273 76.5053 298.273 75.6304C298.273 74.7645 298.607 74.0248 299.274 73.4115C299.942 72.7891 300.74 72.4779 301.669 72.4779C302.607 72.4779 303.405 72.7891 304.064 73.4115C304.731 74.0248 305.065 74.7645 305.065 75.6304C305.065 76.5053 304.731 77.2539 304.064 77.8763C303.405 78.4897 302.607 78.7963 301.669 78.7963ZM315.797 90.1479V102H309.181V81.2182H315.473V85.0336H315.703C316.163 83.7618 316.948 82.7651 318.057 82.0435C319.166 81.3129 320.488 80.9476 322.021 80.9476C323.482 80.9476 324.75 81.2768 325.823 81.9353C326.905 82.5847 327.744 83.4957 328.34 84.6683C328.944 85.8319 329.242 87.1939 329.233 88.7543V102H322.617V90.0532C322.626 88.8986 322.332 87.9966 321.737 87.3472C321.151 86.6978 320.334 86.373 319.288 86.373C318.594 86.373 317.98 86.5264 317.448 86.8331C316.925 87.1307 316.519 87.5592 316.23 88.1184C315.951 88.6776 315.807 89.3541 315.797 90.1479ZM345.059 81.2182V86.0889H331.949V81.2182H345.059ZM334.695 76.2392H341.311V95.4651C341.311 95.871 341.374 96.2002 341.501 96.4528C341.636 96.6963 341.83 96.8722 342.083 96.9804C342.335 97.0797 342.637 97.1293 342.989 97.1293C343.242 97.1293 343.508 97.1067 343.787 97.0616C344.076 97.0075 344.292 96.9624 344.437 96.9263L345.438 101.702C345.122 101.793 344.676 101.905 344.099 102.041C343.53 102.176 342.849 102.262 342.055 102.298C340.504 102.37 339.174 102.189 338.064 101.756C336.964 101.314 336.12 100.629 335.534 99.6999C334.957 98.7709 334.677 97.6028 334.695 96.1957V76.2392ZM366.321 102.392C364.129 102.392 362.249 101.941 360.679 101.039C359.119 100.137 357.919 98.8836 357.08 97.2781C356.242 95.6635 355.822 93.7964 355.822 91.6767C355.822 89.548 356.242 87.6809 357.08 86.0754C357.928 84.4608 359.132 83.2026 360.693 82.3006C362.262 81.3986 364.134 80.9476 366.308 80.9476C368.229 80.9476 369.902 81.2949 371.327 81.9894C372.761 82.6839 373.88 83.6671 374.683 84.9389C375.494 86.2017 375.923 87.6854 375.968 89.3902H369.785C369.659 88.3259 369.298 87.4915 368.703 86.8872C368.116 86.2828 367.35 85.9807 366.402 85.9807C365.636 85.9807 364.964 86.1972 364.386 86.6301C363.809 87.054 363.358 87.6854 363.034 88.5243C362.718 89.3541 362.56 90.3824 362.56 91.6091C362.56 92.8358 362.718 93.8731 363.034 94.721C363.358 95.5598 363.809 96.1957 364.386 96.6287C364.964 97.0526 365.636 97.2646 366.402 97.2646C367.016 97.2646 367.557 97.1338 368.026 96.8722C368.504 96.6106 368.896 96.2273 369.203 95.7222C369.51 95.208 369.704 94.5857 369.785 93.855H375.968C375.905 95.5688 375.476 97.0661 374.683 98.3469C373.898 99.6278 372.793 100.624 371.368 101.337C369.952 102.041 368.27 102.392 366.321 102.392ZM389.055 102.392C386.872 102.392 384.996 101.946 383.426 101.053C381.866 100.151 380.662 98.8972 379.814 97.2916C378.975 95.6771 378.556 93.8054 378.556 91.6767C378.556 89.539 378.975 87.6674 379.814 86.0619C380.662 84.4473 381.866 83.1935 383.426 82.3006C384.996 81.3986 386.872 80.9476 389.055 80.9476C391.238 80.9476 393.109 81.3986 394.67 82.3006C396.239 83.1935 397.443 84.4473 398.282 86.0619C399.13 87.6674 399.554 89.539 399.554 91.6767C399.554 93.8054 399.13 95.6771 398.282 97.2916C397.443 98.8972 396.239 100.151 394.67 101.053C393.109 101.946 391.238 102.392 389.055 102.392ZM389.095 97.3999C389.889 97.3999 390.561 97.1563 391.111 96.6692C391.661 96.1822 392.081 95.5057 392.37 94.6398C392.667 93.7739 392.816 92.7727 392.816 91.6362C392.816 90.4816 392.667 89.4714 392.37 88.6055C392.081 87.7396 391.661 87.0631 391.111 86.576C390.561 86.0889 389.889 85.8454 389.095 85.8454C388.275 85.8454 387.58 86.0889 387.012 86.576C386.453 87.0631 386.024 87.7396 385.726 88.6055C385.438 89.4714 385.293 90.4816 385.293 91.6362C385.293 92.7727 385.438 93.7739 385.726 94.6398C386.024 95.5057 386.453 96.1822 387.012 96.6692C387.58 97.1563 388.275 97.3999 389.095 97.3999ZM409.559 90.1479V102H402.943V81.2182H409.234V85.0336H409.464C409.925 83.7618 410.709 82.7651 411.819 82.0435C412.928 81.3129 414.25 80.9476 415.783 80.9476C417.244 80.9476 418.511 81.2768 419.585 81.9353C420.667 82.5847 421.506 83.4957 422.101 84.6683C422.706 85.8319 423.003 87.1939 422.994 88.7543V102H416.378V90.0532C416.387 88.8986 416.094 87.9966 415.499 87.3472C414.913 86.6978 414.096 86.373 413.05 86.373C412.355 86.373 411.742 86.5264 411.21 86.8331C410.687 87.1307 410.281 87.5592 409.992 88.1184C409.713 88.6776 409.568 89.3541 409.559 90.1479ZM438.902 81.2182V86.0889H425.535V81.2182H438.902ZM428.322 102V80.1629C428.322 78.5573 428.624 77.2269 429.228 76.1716C429.833 75.1072 430.671 74.3135 431.745 73.7903C432.818 73.2581 434.058 72.992 435.465 72.992C436.385 72.992 437.251 73.0642 438.063 73.2085C438.884 73.3438 439.493 73.4656 439.89 73.5738L438.834 78.4175C438.591 78.3363 438.293 78.2687 437.941 78.2146C437.599 78.1604 437.274 78.1334 436.967 78.1334C436.192 78.1334 435.659 78.3048 435.371 78.6475C435.082 78.9903 434.938 79.4593 434.938 80.0546V102H428.322ZM442.085 102V81.2182H448.701V102H442.085ZM445.4 78.7963C444.471 78.7963 443.672 78.4897 443.005 77.8763C442.337 77.2539 442.004 76.5053 442.004 75.6304C442.004 74.7645 442.337 74.0248 443.005 73.4115C443.672 72.7891 444.471 72.4779 445.4 72.4779C446.338 72.4779 447.136 72.7891 447.794 73.4115C448.462 74.0248 448.796 74.7645 448.796 75.6304C448.796 76.5053 448.462 77.2539 447.794 77.8763C447.136 78.4897 446.338 78.7963 445.4 78.7963ZM462.6 110.226C460.624 110.226 458.933 109.951 457.526 109.401C456.119 108.851 455.014 108.097 454.211 107.141C453.408 106.185 452.926 105.103 452.763 103.894L459.028 103.542C459.145 103.966 459.361 104.336 459.677 104.652C460.002 104.968 460.421 105.211 460.935 105.382C461.458 105.554 462.072 105.64 462.775 105.64C463.885 105.64 464.8 105.369 465.522 104.828C466.253 104.296 466.618 103.362 466.618 102.027V98.374H466.388C466.126 99.0144 465.729 99.5872 465.197 100.092C464.665 100.597 464.002 100.994 463.208 101.283C462.424 101.572 461.522 101.716 460.502 101.716C458.987 101.716 457.598 101.364 456.335 100.661C455.081 99.948 454.076 98.8475 453.318 97.3593C452.569 95.862 452.195 93.9362 452.195 91.582C452.195 89.1557 452.583 87.1578 453.359 85.5883C454.134 84.0098 455.149 82.8418 456.403 82.0841C457.666 81.3264 459.023 80.9476 460.475 80.9476C461.567 80.9476 462.5 81.137 463.276 81.5158C464.061 81.8857 464.706 82.3637 465.211 82.95C465.716 83.5363 466.099 84.1451 466.361 84.7765H466.55V81.2182H473.139V102.081C473.139 103.84 472.697 105.324 471.813 106.532C470.929 107.741 469.694 108.657 468.106 109.279C466.519 109.91 464.683 110.226 462.6 110.226ZM462.802 96.8993C463.605 96.8993 464.291 96.6873 464.859 96.2634C465.427 95.8394 465.865 95.2306 466.171 94.4368C466.478 93.6431 466.631 92.6915 466.631 91.582C466.631 90.4545 466.478 89.4849 466.171 88.6731C465.874 87.8523 465.436 87.2209 464.859 86.7789C464.291 86.337 463.605 86.116 462.802 86.116C461.982 86.116 461.287 86.3415 460.719 86.7925C460.151 87.2435 459.718 87.8794 459.42 88.7002C459.131 89.512 458.987 90.4726 458.987 91.582C458.987 92.6915 459.136 93.6431 459.434 94.4368C459.731 95.2306 460.16 95.8394 460.719 96.2634C461.287 96.6873 461.982 96.8993 462.802 96.8993Z" fill="white"/>
<defs>
<linearGradient id="paint0_linear_1_298" x1="0" y1="0" x2="604.091" y2="259.57" gradientUnits="userSpaceOnUse">
<stop stop-color="#171717"/>
<stop offset="1" stop-color="#262626"/>
</linearGradient>
</defs>
</svg>
